<svg width="144" height="34" viewBox="0 0 144 34" fill="none" xmlns="http://www.w3.org/2000/svg">
<path d="M49.2243 11.4458V2.96583H52.9843L54.5683 6.66183L56.1363 2.96583H59.8003V11.4458H57.0163V6.56583L55.4643 9.92583H53.5603L52.0083 6.56583V11.4458H49.2243Z" fill="#333333"/>
<path d="M63.7062 11.6698C63.0982 11.6698 62.5809 11.5525 62.1542 11.3178C61.7275 11.0832 61.4022 10.7578 61.1782 10.3418C60.9542 9.92583 60.8422 9.46716 60.8422 8.96583C60.8422 8.12316 61.0982 7.46716 61.6102 6.99783C62.1329 6.5285 62.9382 6.29383 64.0262 6.29383H66.1542V6.00583C66.1542 5.61116 66.0635 5.33916 65.8822 5.18983C65.7009 5.02983 65.4555 4.94983 65.1462 4.94983C64.8475 4.94983 64.6235 4.99783 64.4742 5.09383C64.3355 5.18983 64.2555 5.33383 64.2342 5.52583H61.3222C61.3542 4.9925 61.5142 4.51783 61.8022 4.10183C62.1009 3.67516 62.5329 3.3445 63.0982 3.10983C63.6742 2.8645 64.3835 2.74183 65.2262 2.74183C66.0049 2.74183 66.6875 2.85916 67.2742 3.09383C67.8715 3.31783 68.3355 3.68583 68.6662 4.19783C68.9969 4.69916 69.1622 5.38183 69.1622 6.24583V9.28583C69.1622 9.73383 69.1729 10.1285 69.1942 10.4698C69.2155 10.8005 69.2529 11.1258 69.3062 11.4458H66.4422C66.4102 11.2965 66.3835 11.1525 66.3622 11.0138C66.3409 10.8752 66.3302 10.6938 66.3302 10.4698C66.1062 10.8005 65.7969 11.0832 65.4022 11.3178C65.0075 11.5525 64.4422 11.6698 63.7062 11.6698ZM64.7942 9.54183C65.0715 9.54183 65.3115 9.49383 65.5142 9.39783C65.7169 9.29116 65.8715 9.14183 65.9782 8.94983C66.0955 8.74716 66.1542 8.5125 66.1542 8.24583V7.98983H64.7462C64.4689 7.98983 64.2555 8.05916 64.1062 8.19783C63.9675 8.3365 63.8982 8.5125 63.8982 8.72583C63.8982 8.98183 63.9675 9.1845 64.1062 9.33383C64.2555 9.4725 64.4849 9.54183 64.7942 9.54183Z" fill="#333333"/>
<path d="M74.5074 11.6698C73.6434 11.6698 72.8808 11.4992 72.2194 11.1578C71.5581 10.8058 71.0408 10.3045 70.6674 9.65383C70.3048 9.00316 70.1234 8.21383 70.1234 7.28583V6.96583C70.1234 6.10183 70.3101 5.35516 70.6834 4.72583C71.0568 4.0965 71.5741 3.61116 72.2354 3.26983C72.9074 2.91783 73.6648 2.74183 74.5074 2.74183C75.4781 2.74183 76.2621 2.90183 76.8594 3.22183C77.4674 3.53116 77.9208 3.9525 78.2194 4.48583C78.5288 5.0085 78.7101 5.59516 78.7634 6.24583H75.8354C75.7821 5.88316 75.6541 5.6165 75.4514 5.44583C75.2594 5.27516 74.9874 5.18983 74.6354 5.18983C74.3474 5.18983 74.0914 5.25916 73.8674 5.39783C73.6541 5.52583 73.4834 5.72316 73.3554 5.98983C73.2381 6.24583 73.1794 6.57116 73.1794 6.96583V7.28583C73.1794 7.72316 73.2381 8.08583 73.3554 8.37383C73.4728 8.66183 73.6381 8.87516 73.8514 9.01383C74.0648 9.14183 74.3261 9.20583 74.6354 9.20583C74.9448 9.20583 75.2061 9.12583 75.4194 8.96583C75.6328 8.79516 75.7714 8.5285 75.8354 8.16583H78.7634C78.7101 8.89116 78.5181 9.51516 78.1874 10.0378C77.8568 10.5605 77.3874 10.9658 76.7794 11.2538C76.1821 11.5312 75.4248 11.6698 74.5074 11.6698Z" fill="#333333"/>
<path d="M81.8196 11.4458V5.38183H79.4036V2.96583H87.2436V5.38183H84.8276V11.4458H81.8196Z" fill="#333333"/>
<path d="M92.3397 11.6698C91.4544 11.6698 90.665 11.5098 89.9717 11.1898C89.289 10.8698 88.7504 10.3898 88.3557 9.74983C87.9717 9.10983 87.7797 8.3045 87.7797 7.33383V7.01383C87.7797 6.0645 87.9664 5.27516 88.3397 4.64583C88.713 4.0165 89.2304 3.54183 89.8917 3.22183C90.5637 2.90183 91.3264 2.74183 92.1797 2.74183C93.6517 2.74183 94.7504 3.10983 95.4757 3.84583C96.201 4.57116 96.5637 5.63783 96.5637 7.04583V7.97383H90.8197C90.841 8.3045 90.9157 8.58183 91.0437 8.80583C91.1717 9.01916 91.3424 9.17916 91.5557 9.28583C91.7797 9.38183 92.041 9.42983 92.3397 9.42983C92.713 9.42983 93.001 9.37116 93.2037 9.25383C93.417 9.12583 93.561 8.96583 93.6357 8.77383H96.4517C96.281 9.75516 95.8437 10.4858 95.1397 10.9658C94.4464 11.4352 93.513 11.6698 92.3397 11.6698ZM92.2597 4.98183C91.9824 4.98183 91.737 5.02983 91.5237 5.12583C91.321 5.22183 91.161 5.3605 91.0437 5.54183C90.9264 5.72316 90.857 5.9525 90.8357 6.22983H93.6197C93.609 5.94183 93.545 5.70716 93.4277 5.52583C93.3104 5.33383 93.1504 5.19516 92.9477 5.10983C92.7557 5.0245 92.5264 4.98183 92.2597 4.98183Z" fill="#333333"/>
<path d="M97.5993 14.6458V2.96583H100.383V4.02183C100.586 3.65916 100.89 3.35516 101.295 3.10983C101.711 2.8645 102.277 2.74183 102.991 2.74183C104.09 2.74183 104.943 3.09916 105.551 3.81383C106.17 4.5285 106.479 5.59516 106.479 7.01383V7.33383C106.479 8.3045 106.33 9.11516 106.031 9.76583C105.733 10.4058 105.317 10.8858 104.783 11.2058C104.261 11.5152 103.663 11.6698 102.991 11.6698C102.501 11.6698 102.047 11.5685 101.631 11.3658C101.215 11.1632 100.874 10.8645 100.607 10.4698V14.6458H97.5993ZM102.063 9.22183C102.426 9.22183 102.741 9.0725 103.007 8.77383C103.274 8.4645 103.407 7.9845 103.407 7.33383V7.01383C103.407 6.37383 103.279 5.90983 103.023 5.62183C102.767 5.33383 102.447 5.18983 102.063 5.18983C101.797 5.18983 101.551 5.2485 101.327 5.36583C101.103 5.48316 100.927 5.6645 100.799 5.90983C100.671 6.15516 100.607 6.4645 100.607 6.83783V7.49383C100.607 7.87783 100.671 8.20316 100.799 8.46983C100.938 8.72583 101.119 8.91783 101.343 9.04583C101.567 9.16316 101.807 9.22183 102.063 9.22183Z" fill="#333333"/>
<path d="M111.601 11.6698C110.737 11.6698 109.975 11.4992 109.313 11.1578C108.652 10.8058 108.135 10.3045 107.761 9.65383C107.399 9.00316 107.217 8.21383 107.217 7.28583V6.96583C107.217 6.10183 107.404 5.35516 107.777 4.72583C108.151 4.0965 108.668 3.61116 109.329 3.26983C110.001 2.91783 110.759 2.74183 111.601 2.74183C112.572 2.74183 113.356 2.90183 113.953 3.22183C114.561 3.53116 115.015 3.9525 115.313 4.48583C115.623 5.0085 115.804 5.59516 115.857 6.24583H112.929C112.876 5.88316 112.748 5.6165 112.545 5.44583C112.353 5.27516 112.081 5.18983 111.729 5.18983C111.441 5.18983 111.185 5.25916 110.961 5.39783C110.748 5.52583 110.577 5.72316 110.449 5.98983C110.332 6.24583 110.273 6.57116 110.273 6.96583V7.28583C110.273 7.72316 110.332 8.08583 110.449 8.37383C110.567 8.66183 110.732 8.87516 110.945 9.01383C111.159 9.14183 111.42 9.20583 111.729 9.20583C112.039 9.20583 112.3 9.12583 112.513 8.96583C112.727 8.79516 112.865 8.5285 112.929 8.16583H115.857C115.804 8.89116 115.612 9.51516 115.281 10.0378C114.951 10.5605 114.481 10.9658 113.873 11.2538C113.276 11.5312 112.519 11.6698 111.601 11.6698Z" fill="#333333"/>
<path d="M116.849 11.4458V2.96583H119.857V6.00583H120.337L122.209 2.96583H125.425L122.849 6.86983L125.585 11.4458H122.129L120.337 8.24583H119.857V11.4458H116.849Z" fill="#333333"/>
<path d="M128.737 11.6698C128.129 11.6698 127.612 11.5525 127.185 11.3178C126.759 11.0832 126.433 10.7578 126.209 10.3418C125.985 9.92583 125.873 9.46716 125.873 8.96583C125.873 8.12316 126.129 7.46716 126.641 6.99783C127.164 6.5285 127.969 6.29383 129.057 6.29383H131.185V6.00583C131.185 5.61116 131.095 5.33916 130.913 5.18983C130.732 5.02983 130.487 4.94983 130.177 4.94983C129.879 4.94983 129.655 4.99783 129.505 5.09383C129.367 5.18983 129.287 5.33383 129.265 5.52583H126.353C126.385 4.9925 126.545 4.51783 126.833 4.10183C127.132 3.67516 127.564 3.3445 128.129 3.10983C128.705 2.8645 129.415 2.74183 130.257 2.74183C131.036 2.74183 131.719 2.85916 132.305 3.09383C132.903 3.31783 133.367 3.68583 133.697 4.19783C134.028 4.69916 134.193 5.38183 134.193 6.24583V9.28583C134.193 9.73383 134.204 10.1285 134.225 10.4698C134.247 10.8005 134.284 11.1258 134.337 11.4458H131.473C131.441 11.2965 131.415 11.1525 131.393 11.0138C131.372 10.8752 131.361 10.6938 131.361 10.4698C131.137 10.8005 130.828 11.0832 130.433 11.3178C130.039 11.5525 129.473 11.6698 128.737 11.6698ZM129.825 9.54183C130.103 9.54183 130.343 9.49383 130.545 9.39783C130.748 9.29116 130.903 9.14183 131.009 8.94983C131.127 8.74716 131.185 8.5125 131.185 8.24583V7.98983H129.777C129.5 7.98983 129.287 8.05916 129.137 8.19783C128.999 8.3365 128.929 8.5125 128.929 8.72583C128.929 8.98183 128.999 9.1845 129.137 9.33383C129.287 9.4725 129.516 9.54183 129.825 9.54183Z" fill="#333333"/>
<path d="M135.075 11.4458L136.979 8.38983C136.424 8.15516 136.019 7.82983 135.763 7.41383C135.517 6.99783 135.395 6.51783 135.395 5.97383C135.395 5.38716 135.523 4.86983 135.779 4.42183C136.035 3.97383 136.429 3.62183 136.963 3.36583C137.507 3.09916 138.205 2.96583 139.059 2.96583H143.555V11.4458H140.547V8.78983H139.779L138.307 11.4458H135.075ZM138.371 5.97383C138.371 6.22983 138.461 6.4165 138.643 6.53383C138.835 6.6405 139.053 6.69383 139.299 6.69383H140.547V5.22183H139.299C139.053 5.22183 138.835 5.2805 138.643 5.39783C138.461 5.51516 138.371 5.70716 138.371 5.97383Z" fill="#333333"/>
<path d="M51.0003 33.8698C50.8403 33.8698 50.6803 33.8538 50.5203 33.8218V31.3738C50.6803 31.4058 50.8403 31.4218 51.0003 31.4218C51.2136 31.4218 51.379 31.3898 51.4963 31.3258C51.6243 31.2725 51.7363 31.1712 51.8323 31.0218C51.9283 30.8725 52.0243 30.6805 52.1203 30.4458L48.6483 21.9658H51.8963L53.7043 27.0378L55.3843 21.9658H58.2483L55.1123 30.4458C54.8136 31.2458 54.4936 31.8965 54.1523 32.3978C53.8216 32.9098 53.411 33.2832 52.9203 33.5178C52.4296 33.7525 51.7896 33.8698 51.0003 33.8698Z" fill="#333333"/>
<path d="M59.0212 30.4458V21.9658H67.3572V30.4458H64.3492V24.3818H62.0292V30.4458H59.0212Z" fill="#333333"/>
<path d="M71.2687 30.6698C70.6607 30.6698 70.1434 30.5525 69.7167 30.3178C69.29 30.0832 68.9647 29.7578 68.7407 29.3418C68.5167 28.9258 68.4047 28.4672 68.4047 27.9658C68.4047 27.1232 68.6607 26.4672 69.1727 25.9978C69.6954 25.5285 70.5007 25.2938 71.5887 25.2938H73.7167V25.0058C73.7167 24.6112 73.626 24.3392 73.4447 24.1898C73.2634 24.0298 73.018 23.9498 72.7087 23.9498C72.41 23.9498 72.186 23.9978 72.0367 24.0938C71.898 24.1898 71.818 24.3338 71.7967 24.5258H68.8847C68.9167 23.9925 69.0767 23.5178 69.3647 23.1018C69.6634 22.6752 70.0954 22.3445 70.6607 22.1098C71.2367 21.8645 71.946 21.7418 72.7887 21.7418C73.5674 21.7418 74.25 21.8592 74.8367 22.0938C75.434 22.3178 75.898 22.6858 76.2287 23.1978C76.5594 23.6992 76.7247 24.3818 76.7247 25.2458V28.2858C76.7247 28.7338 76.7354 29.1285 76.7567 29.4698C76.778 29.8005 76.8154 30.1258 76.8687 30.4458H74.0047C73.9727 30.2965 73.946 30.1525 73.9247 30.0138C73.9034 29.8752 73.8927 29.6938 73.8927 29.4698C73.6687 29.8005 73.3594 30.0832 72.9647 30.3178C72.57 30.5525 72.0047 30.6698 71.2687 30.6698ZM72.3567 28.5418C72.634 28.5418 72.874 28.4938 73.0767 28.3978C73.2794 28.2912 73.434 28.1418 73.5407 27.9498C73.658 27.7472 73.7167 27.5125 73.7167 27.2458V26.9898H72.3087C72.0314 26.9898 71.818 27.0592 71.6687 27.1978C71.53 27.3365 71.4607 27.5125 71.4607 27.7258C71.4607 27.9818 71.53 28.1845 71.6687 28.3338C71.818 28.4725 72.0474 28.5418 72.3567 28.5418Z" fill="#333333"/>
<path d="M77.9899 30.4458V21.9658H80.9979V25.0058H81.4779L83.3499 21.9658H86.5659L83.9899 25.8698L86.7259 30.4458H83.2699L81.4779 27.2458H80.9979V30.4458H77.9899Z" fill="#333333"/>
<path d="M91.2597 30.6698C90.4277 30.6698 89.6704 30.5152 88.9877 30.2058C88.305 29.8858 87.7664 29.4005 87.3717 28.7498C86.977 28.0992 86.7797 27.2778 86.7797 26.2858V25.9658C86.7797 25.0378 86.977 24.2645 87.3717 23.6458C87.7664 23.0165 88.305 22.5418 88.9877 22.2218C89.6704 21.9018 90.4277 21.7418 91.2597 21.7418C92.0917 21.7418 92.8437 21.9018 93.5157 22.2218C94.1984 22.5418 94.737 23.0165 95.1317 23.6458C95.5264 24.2645 95.7237 25.0378 95.7237 25.9658V26.2858C95.7237 27.2458 95.5264 28.0565 95.1317 28.7178C94.737 29.3685 94.1984 29.8592 93.5157 30.1898C92.8437 30.5098 92.0917 30.6698 91.2597 30.6698ZM91.2597 28.2218C91.5477 28.2218 91.7984 28.1525 92.0117 28.0138C92.225 27.8645 92.385 27.6458 92.4917 27.3578C92.609 27.0698 92.6677 26.7125 92.6677 26.2858V25.9658C92.6677 25.5925 92.609 25.2725 92.4917 25.0058C92.385 24.7392 92.225 24.5365 92.0117 24.3978C91.7984 24.2592 91.5477 24.1898 91.2597 24.1898C90.9504 24.1898 90.689 24.2592 90.4757 24.3978C90.273 24.5365 90.113 24.7392 89.9957 25.0058C89.889 25.2725 89.8357 25.5925 89.8357 25.9658V26.2858C89.8357 26.7125 89.889 27.0698 89.9957 27.3578C90.113 27.6458 90.273 27.8645 90.4757 28.0138C90.689 28.1525 90.9504 28.2218 91.2597 28.2218Z" fill="#333333"/>
<path d="M96.7712 30.4458V21.9658H101.843C102.622 21.9658 103.241 22.0672 103.699 22.2698C104.169 22.4618 104.505 22.7232 104.707 23.0538C104.921 23.3845 105.027 23.7578 105.027 24.1738C105.027 24.6005 104.91 24.9898 104.675 25.3418C104.441 25.6832 104.094 25.9125 103.635 26.0298C104.158 26.1578 104.558 26.4032 104.835 26.7658C105.123 27.1285 105.267 27.5498 105.267 28.0298C105.267 28.7658 105.011 29.3525 104.499 29.7898C103.987 30.2272 103.209 30.4458 102.163 30.4458H96.7712ZM99.7792 28.3818H101.267C101.587 28.3818 101.833 28.3232 102.003 28.2058C102.174 28.0885 102.259 27.9285 102.259 27.7258C102.259 27.5232 102.179 27.3632 102.019 27.2458C101.87 27.1285 101.625 27.0698 101.283 27.0698H99.7792V28.3818ZM99.7792 25.2778H101.139C101.491 25.2778 101.726 25.2192 101.843 25.1018C101.961 24.9738 102.019 24.8245 102.019 24.6538C102.019 24.4832 101.955 24.3392 101.827 24.2218C101.71 24.0938 101.481 24.0298 101.139 24.0298H99.7792V25.2778Z" fill="#333333"/>
<path d="M106.287 30.4458V21.9658H109.295V25.0058H109.775L111.647 21.9658H114.863L112.287 25.8698L115.023 30.4458H111.567L109.775 27.2458H109.295V30.4458H106.287Z" fill="#333333"/>
<path d="M115.771 30.4458V21.9658H118.747V26.2858L121.707 21.9658H124.267V30.4458H121.291V26.1258L118.331 30.4458H115.771Z" fill="#333333"/>
<path d="M33.0126 21.0509C33.0126 19.7176 33.0126 18.3843 33.0126 17.0509C30.346 17.0509 27.6793 17.0509 25.0126 17.0509C25.0126 18.3843 25.0126 19.7176 25.0126 21.0509C25.0126 22.7533 25.0126 24.4556 25.0126 26.1579C25.0126 27.3944 25.0126 28.6309 25.0126 29.8673L29.0126 25.8673C20.6793 25.8673 12.346 25.8673 4.01263 25.8673L8.01263 29.8673C8.01263 21.534 8.01263 13.2006 8.01263 4.86731L4.01263 8.86731C12.346 8.86731 20.6793 8.86731 29.0126 8.86731L26.1762 2.0469C23.0698 5.17091 19.9635 8.29491 16.8571 11.4189C15.6568 12.6261 14.4565 13.8332 13.2562 15.0403C15.1471 16.9206 17.0381 18.8009 18.929 20.6811C20.1293 19.474 21.3296 18.2669 22.53 17.0597C25.6363 13.9357 28.7427 10.8117 31.8491 7.68772L29.0126 0.86731C20.6793 0.86731 12.346 0.86731 4.01263 0.86731L0.0126343 4.86731C0.0126343 13.2006 0.0126343 21.534 0.0126343 29.8673L4.01263 33.8673C12.346 33.8673 20.6793 33.8673 29.0126 33.8673L33.0126 29.8673C33.0126 28.6309 33.0126 27.3944 33.0126 26.1579C33.0126 24.4556 33.0126 22.7533 33.0126 21.0509Z" fill="#2B6DD1"/>
<path d="M30.6833 8.86398H19.3981L13.2458 15.0437L18.9211 20.6922L30.6833 8.86398Z" fill="url(#paint0_linear_295_387)"/>
<defs>
<linearGradient id="paint0_linear_295_387" x1="21.9645" y1="8.86398" x2="21.9645" y2="20.6922" gradientUnits="userSpaceOnUse">
<stop stop-color="#194281"/>
<stop offset="1" stop-color="#2B6DD1"/>
</linearGradient>
</defs>
</svg>
