<svg width="144" height="34" viewBox="0 0 144 34" fill="none" xmlns="http://www.w3.org/2000/svg">
<path d="M49.6436 11.097V2.61701H53.4036L54.9876 6.31301L56.5556 2.61701H60.2196V11.097H57.4356V6.21701L55.8836 9.57701H53.9796L52.4276 6.21701V11.097H49.6436Z" fill="black"/>
<path d="M64.1255 11.321C63.5175 11.321 63.0002 11.2037 62.5735 10.969C62.1468 10.7343 61.8215 10.409 61.5975 9.99301C61.3735 9.57701 61.2615 9.11834 61.2615 8.61701C61.2615 7.77434 61.5175 7.11834 62.0295 6.64901C62.5522 6.17967 63.3575 5.94501 64.4455 5.94501H66.5735V5.65701C66.5735 5.26234 66.4828 4.99034 66.3015 4.84101C66.1202 4.68101 65.8748 4.60101 65.5655 4.60101C65.2668 4.60101 65.0428 4.64901 64.8935 4.74501C64.7548 4.84101 64.6748 4.98501 64.6535 5.17701H61.7415C61.7735 4.64367 61.9335 4.16901 62.2215 3.75301C62.5202 3.32634 62.9522 2.99567 63.5175 2.76101C64.0935 2.51567 64.8028 2.39301 65.6455 2.39301C66.4242 2.39301 67.1068 2.51034 67.6935 2.74501C68.2908 2.96901 68.7548 3.33701 69.0855 3.84901C69.4162 4.35034 69.5815 5.03301 69.5815 5.89701V8.93701C69.5815 9.38501 69.5922 9.77967 69.6135 10.121C69.6348 10.4517 69.6722 10.777 69.7255 11.097H66.8615C66.8295 10.9477 66.8028 10.8037 66.7815 10.665C66.7602 10.5263 66.7495 10.345 66.7495 10.121C66.5255 10.4517 66.2162 10.7343 65.8215 10.969C65.4268 11.2037 64.8615 11.321 64.1255 11.321ZM65.2135 9.19301C65.4908 9.19301 65.7308 9.14501 65.9335 9.04901C66.1362 8.94234 66.2908 8.79301 66.3975 8.60101C66.5148 8.39834 66.5735 8.16367 66.5735 7.89701V7.64101H65.1655C64.8882 7.64101 64.6748 7.71034 64.5255 7.84901C64.3868 7.98767 64.3175 8.16367 64.3175 8.37701C64.3175 8.63301 64.3868 8.83567 64.5255 8.98501C64.6748 9.12367 64.9042 9.19301 65.2135 9.19301Z" fill="black"/>
<path d="M74.9268 11.321C74.0628 11.321 73.3001 11.1503 72.6388 10.809C71.9774 10.457 71.4601 9.95567 71.0868 9.30501C70.7241 8.65434 70.5428 7.86501 70.5428 6.93701V6.61701C70.5428 5.75301 70.7294 5.00634 71.1028 4.37701C71.4761 3.74767 71.9934 3.26234 72.6548 2.92101C73.3268 2.56901 74.0841 2.39301 74.9268 2.39301C75.8974 2.39301 76.6814 2.55301 77.2788 2.87301C77.8868 3.18234 78.3401 3.60367 78.6388 4.13701C78.9481 4.65967 79.1294 5.24634 79.1828 5.89701H76.2548C76.2014 5.53434 76.0734 5.26767 75.8708 5.09701C75.6788 4.92634 75.4068 4.84101 75.0548 4.84101C74.7668 4.84101 74.5108 4.91034 74.2868 5.04901C74.0734 5.17701 73.9028 5.37434 73.7748 5.64101C73.6574 5.89701 73.5988 6.22234 73.5988 6.61701V6.93701C73.5988 7.37434 73.6574 7.73701 73.7748 8.02501C73.8921 8.31301 74.0574 8.52634 74.2708 8.66501C74.4841 8.79301 74.7454 8.85701 75.0548 8.85701C75.3641 8.85701 75.6254 8.77701 75.8388 8.61701C76.0521 8.44634 76.1908 8.17967 76.2548 7.81701H79.1828C79.1294 8.54234 78.9374 9.16634 78.6068 9.68901C78.2761 10.2117 77.8068 10.617 77.1988 10.905C76.6014 11.1823 75.8441 11.321 74.9268 11.321Z" fill="black"/>
<path d="M82.2389 11.097V5.03301H79.8229V2.61701H87.6629V5.03301H85.2469V11.097H82.2389Z" fill="black"/>
<path d="M92.759 11.321C91.8737 11.321 91.0843 11.161 90.391 10.841C89.7083 10.521 89.1697 10.041 88.775 9.40101C88.391 8.76101 88.199 7.95567 88.199 6.98501V6.66501C88.199 5.71567 88.3857 4.92634 88.759 4.29701C89.1323 3.66767 89.6497 3.19301 90.311 2.87301C90.983 2.55301 91.7457 2.39301 92.599 2.39301C94.071 2.39301 95.1697 2.76101 95.895 3.49701C96.6203 4.22234 96.983 5.28901 96.983 6.69701V7.62501H91.239C91.2603 7.95567 91.335 8.23301 91.463 8.45701C91.591 8.67034 91.7617 8.83034 91.975 8.93701C92.199 9.03301 92.4603 9.08101 92.759 9.08101C93.1323 9.08101 93.4203 9.02234 93.623 8.90501C93.8363 8.77701 93.9803 8.61701 94.055 8.42501H96.871C96.7003 9.40634 96.263 10.137 95.559 10.617C94.8657 11.0863 93.9323 11.321 92.759 11.321ZM92.679 4.63301C92.4017 4.63301 92.1563 4.68101 91.943 4.77701C91.7403 4.87301 91.5803 5.01167 91.463 5.19301C91.3457 5.37434 91.2763 5.60367 91.255 5.88101H94.039C94.0283 5.59301 93.9643 5.35834 93.847 5.17701C93.7297 4.98501 93.5697 4.84634 93.367 4.76101C93.175 4.67567 92.9457 4.63301 92.679 4.63301Z" fill="black"/>
<path d="M98.0186 14.297V2.61701H100.803V3.67301C101.005 3.31034 101.309 3.00634 101.715 2.76101C102.131 2.51567 102.696 2.39301 103.411 2.39301C104.509 2.39301 105.363 2.75034 105.971 3.46501C106.589 4.17967 106.899 5.24634 106.899 6.66501V6.98501C106.899 7.95567 106.749 8.76634 106.451 9.41701C106.152 10.057 105.736 10.537 105.203 10.857C104.68 11.1663 104.083 11.321 103.411 11.321C102.92 11.321 102.467 11.2197 102.051 11.017C101.635 10.8143 101.293 10.5157 101.027 10.121V14.297H98.0186ZM102.483 8.87301C102.845 8.87301 103.16 8.72367 103.427 8.42501C103.693 8.11567 103.827 7.63567 103.827 6.98501V6.66501C103.827 6.02501 103.699 5.56101 103.443 5.27301C103.187 4.98501 102.867 4.84101 102.483 4.84101C102.216 4.84101 101.971 4.89967 101.747 5.01701C101.523 5.13434 101.347 5.31567 101.219 5.56101C101.091 5.80634 101.027 6.11567 101.027 6.48901V7.14501C101.027 7.52901 101.091 7.85434 101.219 8.12101C101.357 8.37701 101.539 8.56901 101.763 8.69701C101.987 8.81434 102.227 8.87301 102.483 8.87301Z" fill="black"/>
<path d="M112.021 11.321C111.157 11.321 110.394 11.1503 109.733 10.809C109.071 10.457 108.554 9.95567 108.181 9.30501C107.818 8.65434 107.637 7.86501 107.637 6.93701V6.61701C107.637 5.75301 107.823 5.00634 108.197 4.37701C108.57 3.74767 109.087 3.26234 109.749 2.92101C110.421 2.56901 111.178 2.39301 112.021 2.39301C112.991 2.39301 113.775 2.55301 114.373 2.87301C114.981 3.18234 115.434 3.60367 115.733 4.13701C116.042 4.65967 116.223 5.24634 116.277 5.89701H113.349C113.295 5.53434 113.167 5.26767 112.965 5.09701C112.773 4.92634 112.501 4.84101 112.149 4.84101C111.861 4.84101 111.605 4.91034 111.381 5.04901C111.167 5.17701 110.997 5.37434 110.869 5.64101C110.751 5.89701 110.693 6.22234 110.693 6.61701V6.93701C110.693 7.37434 110.751 7.73701 110.869 8.02501C110.986 8.31301 111.151 8.52634 111.365 8.66501C111.578 8.79301 111.839 8.85701 112.149 8.85701C112.458 8.85701 112.719 8.77701 112.933 8.61701C113.146 8.44634 113.285 8.17967 113.349 7.81701H116.277C116.223 8.54234 116.031 9.16634 115.701 9.68901C115.37 10.2117 114.901 10.617 114.293 10.905C113.695 11.1823 112.938 11.321 112.021 11.321Z" fill="black"/>
<path d="M117.269 11.097V2.61701H120.277V5.65701H120.757L122.629 2.61701H125.845L123.269 6.52101L126.005 11.097H122.549L120.757 7.89701H120.277V11.097H117.269Z" fill="black"/>
<path d="M129.157 11.321C128.549 11.321 128.031 11.2037 127.605 10.969C127.178 10.7343 126.853 10.409 126.629 9.99301C126.405 9.57701 126.293 9.11834 126.293 8.61701C126.293 7.77434 126.549 7.11834 127.061 6.64901C127.583 6.17967 128.389 5.94501 129.477 5.94501H131.605V5.65701C131.605 5.26234 131.514 4.99034 131.333 4.84101C131.151 4.68101 130.906 4.60101 130.597 4.60101C130.298 4.60101 130.074 4.64901 129.925 4.74501C129.786 4.84101 129.706 4.98501 129.685 5.17701H126.773C126.805 4.64367 126.965 4.16901 127.253 3.75301C127.551 3.32634 127.983 2.99567 128.549 2.76101C129.125 2.51567 129.834 2.39301 130.677 2.39301C131.455 2.39301 132.138 2.51034 132.725 2.74501C133.322 2.96901 133.786 3.33701 134.117 3.84901C134.447 4.35034 134.613 5.03301 134.613 5.89701V8.93701C134.613 9.38501 134.623 9.77967 134.645 10.121C134.666 10.4517 134.703 10.777 134.757 11.097H131.893C131.861 10.9477 131.834 10.8037 131.813 10.665C131.791 10.5263 131.781 10.345 131.781 10.121C131.557 10.4517 131.247 10.7343 130.853 10.969C130.458 11.2037 129.893 11.321 129.157 11.321ZM130.245 9.19301C130.522 9.19301 130.762 9.14501 130.965 9.04901C131.167 8.94234 131.322 8.79301 131.429 8.60101C131.546 8.39834 131.605 8.16367 131.605 7.89701V7.64101H130.197C129.919 7.64101 129.706 7.71034 129.557 7.84901C129.418 7.98767 129.349 8.16367 129.349 8.37701C129.349 8.63301 129.418 8.83567 129.557 8.98501C129.706 9.12367 129.935 9.19301 130.245 9.19301Z" fill="black"/>
<path d="M135.494 11.097L137.398 8.04101C136.843 7.80634 136.438 7.48101 136.182 7.06501C135.937 6.64901 135.814 6.16901 135.814 5.62501C135.814 5.03834 135.942 4.52101 136.198 4.07301C136.454 3.62501 136.849 3.27301 137.382 3.01701C137.926 2.75034 138.625 2.61701 139.478 2.61701H143.974V11.097H140.966V8.44101H140.198L138.726 11.097H135.494ZM138.79 5.62501C138.79 5.88101 138.881 6.06767 139.062 6.18501C139.254 6.29167 139.473 6.34501 139.718 6.34501H140.966V4.87301H139.718C139.473 4.87301 139.254 4.93167 139.062 5.04901C138.881 5.16634 138.79 5.35834 138.79 5.62501Z" fill="black"/>
<path d="M51.4196 33.521C51.2596 33.521 51.0996 33.505 50.9396 33.473V31.025C51.0996 31.057 51.2596 31.073 51.4196 31.073C51.633 31.073 51.7983 31.041 51.9156 30.977C52.0436 30.9237 52.1556 30.8223 52.2516 30.673C52.3476 30.5237 52.4436 30.3317 52.5396 30.097L49.0676 21.617H52.3156L54.1236 26.689L55.8036 21.617H58.6676L55.5316 30.097C55.233 30.897 54.913 31.5477 54.5716 32.049C54.241 32.561 53.8303 32.9343 53.3396 33.169C52.849 33.4037 52.209 33.521 51.4196 33.521Z" fill="black"/>
<path d="M59.4405 30.097V21.617H67.7765V30.097H64.7685V24.033H62.4485V30.097H59.4405Z" fill="black"/>
<path d="M71.688 30.321C71.08 30.321 70.5627 30.2037 70.136 29.969C69.7093 29.7343 69.384 29.409 69.16 28.993C68.936 28.577 68.824 28.1183 68.824 27.617C68.824 26.7743 69.08 26.1183 69.592 25.649C70.1147 25.1797 70.92 24.945 72.008 24.945H74.136V24.657C74.136 24.2623 74.0453 23.9903 73.864 23.841C73.6827 23.681 73.4373 23.601 73.128 23.601C72.8293 23.601 72.6053 23.649 72.456 23.745C72.3173 23.841 72.2373 23.985 72.216 24.177H69.304C69.336 23.6437 69.496 23.169 69.784 22.753C70.0827 22.3263 70.5147 21.9957 71.08 21.761C71.656 21.5157 72.3653 21.393 73.208 21.393C73.9867 21.393 74.6693 21.5103 75.256 21.745C75.8533 21.969 76.3173 22.337 76.648 22.849C76.9787 23.3503 77.144 24.033 77.144 24.897V27.937C77.144 28.385 77.1547 28.7797 77.176 29.121C77.1973 29.4517 77.2347 29.777 77.288 30.097H74.424C74.392 29.9477 74.3653 29.8037 74.344 29.665C74.3227 29.5263 74.312 29.345 74.312 29.121C74.088 29.4517 73.7787 29.7343 73.384 29.969C72.9893 30.2037 72.424 30.321 71.688 30.321ZM72.776 28.193C73.0533 28.193 73.2933 28.145 73.496 28.049C73.6987 27.9423 73.8533 27.793 73.96 27.601C74.0773 27.3983 74.136 27.1637 74.136 26.897V26.641H72.728C72.4507 26.641 72.2373 26.7103 72.088 26.849C71.9493 26.9877 71.88 27.1637 71.88 27.377C71.88 27.633 71.9493 27.8357 72.088 27.985C72.2373 28.1237 72.4667 28.193 72.776 28.193Z" fill="black"/>
<path d="M78.4093 30.097V21.617H81.4173V24.657H81.8973L83.7693 21.617H86.9853L84.4093 25.521L87.1453 30.097H83.6893L81.8973 26.897H81.4173V30.097H78.4093Z" fill="black"/>
<path d="M91.679 30.321C90.847 30.321 90.0897 30.1663 89.407 29.857C88.7243 29.537 88.1857 29.0517 87.791 28.401C87.3963 27.7503 87.199 26.929 87.199 25.937V25.617C87.199 24.689 87.3963 23.9157 87.791 23.297C88.1857 22.6677 88.7243 22.193 89.407 21.873C90.0897 21.553 90.847 21.393 91.679 21.393C92.511 21.393 93.263 21.553 93.935 21.873C94.6177 22.193 95.1563 22.6677 95.551 23.297C95.9457 23.9157 96.143 24.689 96.143 25.617V25.937C96.143 26.897 95.9457 27.7077 95.551 28.369C95.1563 29.0197 94.6177 29.5103 93.935 29.841C93.263 30.161 92.511 30.321 91.679 30.321ZM91.679 27.873C91.967 27.873 92.2177 27.8037 92.431 27.665C92.6443 27.5157 92.8043 27.297 92.911 27.009C93.0283 26.721 93.087 26.3637 93.087 25.937V25.617C93.087 25.2437 93.0283 24.9237 92.911 24.657C92.8043 24.3903 92.6443 24.1877 92.431 24.049C92.2177 23.9103 91.967 23.841 91.679 23.841C91.3697 23.841 91.1083 23.9103 90.895 24.049C90.6923 24.1877 90.5323 24.3903 90.415 24.657C90.3083 24.9237 90.255 25.2437 90.255 25.617V25.937C90.255 26.3637 90.3083 26.721 90.415 27.009C90.5323 27.297 90.6923 27.5157 90.895 27.665C91.1083 27.8037 91.3697 27.873 91.679 27.873Z" fill="black"/>
<path d="M97.1905 30.097V21.617H102.263C103.041 21.617 103.66 21.7183 104.119 21.921C104.588 22.113 104.924 22.3743 105.127 22.705C105.34 23.0357 105.447 23.409 105.447 23.825C105.447 24.2517 105.329 24.641 105.095 24.993C104.86 25.3343 104.513 25.5637 104.055 25.681C104.577 25.809 104.977 26.0543 105.255 26.417C105.543 26.7797 105.687 27.201 105.687 27.681C105.687 28.417 105.431 29.0037 104.919 29.441C104.407 29.8783 103.628 30.097 102.583 30.097H97.1905ZM100.199 28.033H101.687C102.007 28.033 102.252 27.9743 102.423 27.857C102.593 27.7397 102.679 27.5797 102.679 27.377C102.679 27.1743 102.599 27.0143 102.439 26.897C102.289 26.7797 102.044 26.721 101.703 26.721H100.199V28.033ZM100.199 24.929H101.559C101.911 24.929 102.145 24.8703 102.263 24.753C102.38 24.625 102.439 24.4757 102.439 24.305C102.439 24.1343 102.375 23.9903 102.247 23.873C102.129 23.745 101.9 23.681 101.559 23.681H100.199V24.929Z" fill="black"/>
<path d="M106.706 30.097V21.617H109.714V24.657H110.194L112.066 21.617H115.282L112.706 25.521L115.442 30.097H111.986L110.194 26.897H109.714V30.097H106.706Z" fill="black"/>
<path d="M116.19 30.097V21.617H119.167V25.937L122.127 21.617H124.687V30.097H121.711V25.777L118.751 30.097H116.19Z" fill="black"/>
<path d="M33.4319 20.7021C33.4319 19.3688 33.4319 18.0354 33.4319 16.7021C30.7653 16.7021 28.0986 16.7021 25.4319 16.7021C25.4319 18.0354 25.4319 19.3688 25.4319 20.7021C25.4319 22.4044 25.4319 24.1068 25.4319 25.8091C25.4319 27.0456 25.4319 28.282 25.4319 29.5185L29.4319 25.5185C21.0986 25.5185 12.7653 25.5185 4.43195 25.5185L8.43195 29.5185C8.43195 21.1851 8.43195 12.8518 8.43195 4.51848L4.43195 8.51848C12.7653 8.51848 21.0986 8.51848 29.4319 8.51848L26.5955 1.69807C23.4892 4.82208 20.3828 7.94608 17.2764 11.0701C16.0761 12.2772 14.8758 13.4844 13.6755 14.6915C15.5664 16.5718 17.4574 18.452 19.3483 20.3323C20.5486 19.1252 21.749 17.918 22.9493 16.7109C26.0556 13.5869 29.162 10.4629 32.2684 7.33889L29.4319 0.518478C21.0986 0.518478 12.7653 0.518478 4.43195 0.518478L0.431946 4.51848C0.431946 12.8518 0.431946 21.1851 0.431946 29.5185L4.43195 33.5185C12.7653 33.5185 21.0986 33.5185 29.4319 33.5185L33.4319 29.5185C33.4319 28.282 33.4319 27.0456 33.4319 25.8091C33.4319 24.1068 33.4319 22.4044 33.4319 20.7021Z" fill="#0C73FE"/>
<path d="M31.1026 8.51515H19.8174L13.6651 14.6948L19.3404 20.3434L31.1026 8.51515Z" fill="url(#paint0_linear_46_45)"/>
<defs>
<linearGradient id="paint0_linear_46_45" x1="22.3839" y1="8.51515" x2="22.3839" y2="20.3434" gradientUnits="userSpaceOnUse">
<stop stop-color="#154C97"/>
<stop offset="1" stop-color="#0C73FE"/>
</linearGradient>
</defs>
</svg>
