<svg width="152" height="46" viewBox="0 0 152 46" fill="none" xmlns="http://www.w3.org/2000/svg">
<path d="M31.026 3.71853L35.5702 6.10324C40.4592 8.6688 42.5233 10.1073 43.8807 12.4124C45.2381 14.7175 45.6183 17.4302 45.6183 23.1669V23.4327C45.6183 29.1694 45.2381 32.038 43.8807 34.3431C42.5233 36.6481 40.4592 37.9308 35.5702 40.4965L31.026 42.8811C27.037 44.9744 25.1 45.6559 22.9544 45.6559C20.8088 45.6559 18.7569 44.9744 14.7679 42.8811L10.2237 40.4965C5.33483 37.9308 3.21494 36.6481 1.85759 34.3431C0.500218 32.038 0.175659 29.1694 0.175659 23.4327V23.1669C0.175659 17.4302 0.500218 14.888 1.85759 12.5829C3.21494 10.2778 5.33483 8.6688 10.2237 6.10324L14.7679 3.71853C18.7569 1.62519 20.7514 0.90509 22.897 0.90509C25.0425 0.90509 27.037 1.62519 31.026 3.71853Z" fill="white"/>
<path d="M29.0813 8.40267L32.5385 10.2169C36.258 12.1688 38.1176 13.1447 39.1503 14.8984C40.1829 16.6521 40.1829 18.8343 40.1829 23.1987V23.401C40.1829 27.7653 40.1829 29.9477 39.1503 31.7014C38.1176 33.455 36.258 34.4308 32.5385 36.3828L29.0813 38.1969C26.0466 39.7895 24.5292 40.5859 22.8969 40.5859C21.2646 40.5859 19.7472 39.7895 16.7124 38.1969L13.2552 36.3828C9.53586 34.4308 7.67616 33.455 6.64351 31.7014C5.61084 29.9477 5.61084 27.7653 5.61084 23.401V23.1987C5.61084 18.8343 5.61084 16.6521 6.64351 14.8984C7.67616 13.1447 9.53586 12.1688 13.2552 10.2169L16.7124 8.40267C19.7472 6.81009 21.2646 6.01379 22.8969 6.01379C24.5292 6.01379 26.0466 6.81009 29.0813 8.40267Z" stroke="#1A4EAE" stroke-width="5" stroke-linecap="round"/>
<path d="M38.4544 15.5211L31.5399 18.9783M31.5399 18.9783C31.5399 18.9783 31.0132 19.2417 30.6756 19.4105C27.6378 20.9294 22.8969 23.2999 22.8969 23.2999M31.5399 18.9783V25.0285M31.5399 18.9783L15.1182 10.3353M22.8969 23.2999L7.33948 15.5211M22.8969 23.2999V39.7216" stroke="#1A4EAE" stroke-width="5" stroke-linecap="round"/>
<path d="M55.3435 20.2998V9.44983H58.831L61.5125 14.4873L64.194 9.44983H67.5885V20.2998H64.1475V15.0143L62.396 18.2848H60.536L58.7845 15.0143V20.2998H55.3435ZM71.578 20.5168C70.989 20.5168 70.4879 20.4032 70.0745 20.1758C69.6612 19.9485 69.346 19.6333 69.129 19.2303C68.912 18.8273 68.8035 18.383 68.8035 17.8973C68.8035 17.081 69.0515 16.4455 69.5475 15.9908C70.0539 15.5362 70.834 15.3088 71.888 15.3088H73.9495V15.0298C73.9495 14.6475 73.8617 14.384 73.686 14.2393C73.5104 14.0843 73.2727 14.0068 72.973 14.0068C72.6837 14.0068 72.4667 14.0533 72.322 14.1463C72.1877 14.2393 72.1102 14.3788 72.0895 14.5648H69.2685C69.2995 14.0482 69.4545 13.5883 69.7335 13.1853C70.0229 12.772 70.4414 12.4517 70.989 12.2243C71.547 11.9867 72.2342 11.8678 73.0505 11.8678C73.8049 11.8678 74.4662 11.9815 75.0345 12.2088C75.6132 12.4258 76.0627 12.7823 76.383 13.2783C76.7034 13.764 76.8635 14.4253 76.8635 15.2623V18.2073C76.8635 18.6413 76.8739 19.0237 76.8945 19.3543C76.9152 19.6747 76.9514 19.9898 77.003 20.2998H74.2285C74.1975 20.1552 74.1717 20.0157 74.151 19.8813C74.1304 19.747 74.12 19.5713 74.12 19.3543C73.903 19.6747 73.6034 19.9485 73.221 20.1758C72.8387 20.4032 72.291 20.5168 71.578 20.5168ZM72.632 18.4553C72.9007 18.4553 73.1332 18.4088 73.3295 18.3158C73.5259 18.2125 73.6757 18.0678 73.779 17.8818C73.8927 17.6855 73.9495 17.4582 73.9495 17.1998V16.9518H72.5855C72.3169 16.9518 72.1102 17.019 71.9655 17.1533C71.8312 17.2877 71.764 17.4582 71.764 17.6648C71.764 17.9128 71.8312 18.1092 71.9655 18.2538C72.1102 18.3882 72.3324 18.4553 72.632 18.4553ZM82.0417 20.5168C81.2047 20.5168 80.4659 20.3515 79.8252 20.0208C79.1846 19.6798 78.6834 19.1942 78.3217 18.5638C77.9704 17.9335 77.7947 17.1688 77.7947 16.2698V15.9598C77.7947 15.1228 77.9756 14.3995 78.3372 13.7898C78.6989 13.1802 79.2001 12.71 79.8407 12.3793C80.4917 12.0383 81.2254 11.8678 82.0417 11.8678C82.9821 11.8678 83.7416 12.0228 84.3202 12.3328C84.9092 12.6325 85.3484 13.0407 85.6377 13.5573C85.9374 14.0637 86.1131 14.632 86.1647 15.2623H83.3282C83.2766 14.911 83.1526 14.6527 82.9562 14.4873C82.7702 14.322 82.5067 14.2393 82.1657 14.2393C81.8867 14.2393 81.6387 14.3065 81.4217 14.4408C81.2151 14.5648 81.0497 14.756 80.9257 15.0143C80.8121 15.2623 80.7552 15.5775 80.7552 15.9598V16.2698C80.7552 16.6935 80.8121 17.0448 80.9257 17.3238C81.0394 17.6028 81.1996 17.8095 81.4062 17.9438C81.6129 18.0678 81.8661 18.1298 82.1657 18.1298C82.4654 18.1298 82.7186 18.0523 82.9252 17.8973C83.1319 17.732 83.2662 17.4737 83.3282 17.1223H86.1647C86.1131 17.825 85.9271 18.4295 85.6067 18.9358C85.2864 19.4422 84.8317 19.8348 84.2427 20.1138C83.6641 20.3825 82.9304 20.5168 82.0417 20.5168ZM89.1254 20.2998V14.4253H86.7849V12.0848H94.3799V14.4253H92.0394V20.2998H89.1254ZM99.3167 20.5168C98.4591 20.5168 97.6944 20.3618 97.0227 20.0518C96.3614 19.7418 95.8396 19.2768 95.4572 18.6568C95.0852 18.0368 94.8992 17.2567 94.8992 16.3163V16.0063C94.8992 15.0867 95.0801 14.322 95.4417 13.7123C95.8034 13.1027 96.3046 12.6428 96.9452 12.3328C97.5962 12.0228 98.3351 11.8678 99.1617 11.8678C100.588 11.8678 101.652 12.2243 102.355 12.9373C103.057 13.64 103.409 14.6733 103.409 16.0373V16.9363H97.8442C97.8649 17.2567 97.9372 17.5253 98.0612 17.7423C98.1852 17.949 98.3506 18.104 98.5572 18.2073C98.7742 18.3003 99.0274 18.3468 99.3167 18.3468C99.6784 18.3468 99.9574 18.29 100.154 18.1763C100.36 18.0523 100.5 17.8973 100.572 17.7113H103.3C103.135 18.662 102.711 19.3698 102.029 19.8348C101.358 20.2895 100.453 20.5168 99.3167 20.5168ZM99.2392 14.0378C98.9706 14.0378 98.7329 14.0843 98.5262 14.1773C98.3299 14.2703 98.1749 14.4047 98.0612 14.5803C97.9476 14.756 97.8804 14.9782 97.8597 15.2468H100.557C100.546 14.9678 100.484 14.7405 100.371 14.5648C100.257 14.3788 100.102 14.2445 99.9057 14.1618C99.7197 14.0792 99.4976 14.0378 99.2392 14.0378ZM104.412 23.3998V12.0848H107.109V13.1078C107.305 12.7565 107.6 12.462 107.992 12.2243C108.395 11.9867 108.943 11.8678 109.635 11.8678C110.7 11.8678 111.526 12.214 112.115 12.9063C112.715 13.5987 113.014 14.632 113.014 16.0063V16.3163C113.014 17.2567 112.87 18.042 112.58 18.6723C112.291 19.2923 111.888 19.7573 111.371 20.0673C110.865 20.367 110.286 20.5168 109.635 20.5168C109.16 20.5168 108.721 20.4187 108.318 20.2223C107.915 20.026 107.584 19.7367 107.326 19.3543V23.3998H104.412ZM108.736 18.1453C109.088 18.1453 109.393 18.0007 109.651 17.7113C109.909 17.4117 110.038 16.9467 110.038 16.3163V16.0063C110.038 15.3863 109.914 14.9368 109.666 14.6578C109.418 14.3788 109.108 14.2393 108.736 14.2393C108.478 14.2393 108.24 14.2962 108.023 14.4098C107.806 14.5235 107.636 14.6992 107.512 14.9368C107.388 15.1745 107.326 15.4742 107.326 15.8358V16.4713C107.326 16.8433 107.388 17.1585 107.512 17.4168C107.646 17.6648 107.822 17.8508 108.039 17.9748C108.256 18.0885 108.488 18.1453 108.736 18.1453ZM117.976 20.5168C117.139 20.5168 116.4 20.3515 115.76 20.0208C115.119 19.6798 114.618 19.1942 114.256 18.5638C113.905 17.9335 113.729 17.1688 113.729 16.2698V15.9598C113.729 15.1228 113.91 14.3995 114.272 13.7898C114.633 13.1802 115.135 12.71 115.775 12.3793C116.426 12.0383 117.16 11.8678 117.976 11.8678C118.917 11.8678 119.676 12.0228 120.255 12.3328C120.844 12.6325 121.283 13.0407 121.572 13.5573C121.872 14.0637 122.048 14.632 122.099 15.2623H119.263C119.211 14.911 119.087 14.6527 118.891 14.4873C118.705 14.322 118.441 14.2393 118.1 14.2393C117.821 14.2393 117.573 14.3065 117.356 14.4408C117.15 14.5648 116.984 14.756 116.86 15.0143C116.747 15.2623 116.69 15.5775 116.69 15.9598V16.2698C116.69 16.6935 116.747 17.0448 116.86 17.3238C116.974 17.6028 117.134 17.8095 117.341 17.9438C117.547 18.0678 117.801 18.1298 118.1 18.1298C118.4 18.1298 118.653 18.0523 118.86 17.8973C119.066 17.732 119.201 17.4737 119.263 17.1223H122.099C122.048 17.825 121.862 18.4295 121.541 18.9358C121.221 19.4422 120.766 19.8348 120.177 20.1138C119.599 20.3825 118.865 20.5168 117.976 20.5168ZM123.06 20.2998V12.0848H125.974V15.0298H126.439L128.253 12.0848H131.368L128.873 15.8668L131.523 20.2998H128.175L126.439 17.1998H125.974V20.2998H123.06ZM134.577 20.5168C133.988 20.5168 133.487 20.4032 133.074 20.1758C132.66 19.9485 132.345 19.6333 132.128 19.2303C131.911 18.8273 131.803 18.383 131.803 17.8973C131.803 17.081 132.051 16.4455 132.547 15.9908C133.053 15.5362 133.833 15.3088 134.887 15.3088H136.949V15.0298C136.949 14.6475 136.861 14.384 136.685 14.2393C136.509 14.0843 136.272 14.0068 135.972 14.0068C135.683 14.0068 135.466 14.0533 135.321 14.1463C135.187 14.2393 135.109 14.3788 135.089 14.5648H132.268C132.299 14.0482 132.454 13.5883 132.733 13.1853C133.022 12.772 133.44 12.4517 133.988 12.2243C134.546 11.9867 135.233 11.8678 136.05 11.8678C136.804 11.8678 137.465 11.9815 138.034 12.2088C138.612 12.4258 139.062 12.7823 139.382 13.2783C139.702 13.764 139.863 14.4253 139.863 15.2623V18.2073C139.863 18.6413 139.873 19.0237 139.894 19.3543C139.914 19.6747 139.95 19.9898 140.002 20.2998H137.228C137.197 20.1552 137.171 20.0157 137.15 19.8813C137.129 19.747 137.119 19.5713 137.119 19.3543C136.902 19.6747 136.602 19.9485 136.22 20.1758C135.838 20.4032 135.29 20.5168 134.577 20.5168ZM135.631 18.4553C135.9 18.4553 136.132 18.4088 136.329 18.3158C136.525 18.2125 136.675 18.0678 136.778 17.8818C136.892 17.6855 136.949 17.4582 136.949 17.1998V16.9518H135.585C135.316 16.9518 135.109 17.019 134.965 17.1533C134.83 17.2877 134.763 17.4582 134.763 17.6648C134.763 17.9128 134.83 18.1092 134.965 18.2538C135.109 18.3882 135.331 18.4553 135.631 18.4553ZM140.716 20.2998L142.561 17.3393C142.023 17.112 141.631 16.7968 141.383 16.3938C141.145 15.9908 141.026 15.5258 141.026 14.9988C141.026 14.4305 141.15 13.9293 141.398 13.4953C141.646 13.0613 142.029 12.7203 142.545 12.4723C143.072 12.214 143.749 12.0848 144.576 12.0848H148.931V20.2998H146.017V17.7268H145.273L143.847 20.2998H140.716ZM143.909 14.9988C143.909 15.2468 143.997 15.4277 144.173 15.5413C144.359 15.6447 144.571 15.6963 144.808 15.6963H146.017V14.2703H144.808C144.571 14.2703 144.359 14.3272 144.173 14.4408C143.997 14.5545 143.909 14.7405 143.909 14.9988ZM57.8235 38.5168C57.7098 38.5168 57.591 38.5065 57.467 38.4858C57.343 38.4755 57.2345 38.4548 57.1415 38.4238V35.7578C57.2551 35.7785 57.3791 35.7992 57.5135 35.8198C57.6478 35.8405 57.7821 35.8508 57.9165 35.8508C58.1335 35.8508 58.3091 35.8353 58.4435 35.8043C58.5778 35.7733 58.6863 35.7165 58.769 35.6338C58.8516 35.5512 58.9188 35.4427 58.9705 35.3083L54.584 27.4498H58.273L60.5205 31.9138L62.2565 27.4498H65.6665L62.2565 35.5408C62.0085 36.1195 61.7553 36.6052 61.497 36.9978C61.249 37.3802 60.9596 37.685 60.629 37.9123C60.2983 38.1293 59.9056 38.2843 59.451 38.3773C58.9963 38.4703 58.4538 38.5168 57.8235 38.5168ZM65.8285 38.2998V30.0848H73.904V38.2998H70.99V32.4253H68.7425V38.2998H65.8285ZM77.6933 38.5168C77.1043 38.5168 76.6031 38.4032 76.1898 38.1758C75.7764 37.9485 75.4613 37.6333 75.2443 37.2303C75.0273 36.8273 74.9188 36.383 74.9188 35.8973C74.9188 35.081 75.1668 34.4455 75.6628 33.9908C76.1691 33.5362 76.9493 33.3088 78.0033 33.3088H80.0648V33.0298C80.0648 32.6475 79.9769 32.384 79.8013 32.2393C79.6256 32.0843 79.3879 32.0068 79.0883 32.0068C78.7989 32.0068 78.5819 32.0533 78.4373 32.1463C78.3029 32.2393 78.2254 32.3788 78.2048 32.5648H75.3838C75.4148 32.0482 75.5698 31.5883 75.8488 31.1853C76.1381 30.772 76.5566 30.4517 77.1043 30.2243C77.6623 29.9867 78.3494 29.8678 79.1658 29.8678C79.9201 29.8678 80.5814 29.9815 81.1498 30.2088C81.7284 30.4258 82.1779 30.7823 82.4983 31.2783C82.8186 31.764 82.9788 32.4253 82.9788 33.2623V36.2073C82.9788 36.6413 82.9891 37.0237 83.0098 37.3543C83.0304 37.6747 83.0666 37.9898 83.1183 38.2998H80.3438C80.3128 38.1552 80.2869 38.0157 80.2663 37.8813C80.2456 37.747 80.2353 37.5713 80.2353 37.3543C80.0183 37.6747 79.7186 37.9485 79.3363 38.1758C78.9539 38.4032 78.4063 38.5168 77.6933 38.5168ZM78.7473 36.4553C79.0159 36.4553 79.2484 36.4088 79.4448 36.3158C79.6411 36.2125 79.7909 36.0678 79.8943 35.8818C80.0079 35.6855 80.0648 35.4582 80.0648 35.1998V34.9518H78.7008C78.4321 34.9518 78.2254 35.019 78.0808 35.1533C77.9464 35.2877 77.8793 35.4582 77.8793 35.6648C77.8793 35.9128 77.9464 36.1092 78.0808 36.2538C78.2254 36.3882 78.4476 36.4553 78.7473 36.4553ZM84.2045 38.2998V30.0848H87.1185V33.0298H87.5835L89.397 30.0848H92.5125L90.017 33.8668L92.6675 38.2998H89.3195L87.5835 35.1998H87.1185V38.2998H84.2045ZM97.0595 38.5168C96.2535 38.5168 95.5199 38.367 94.8585 38.0673C94.1972 37.7573 93.6754 37.2872 93.293 36.6568C92.9107 36.0265 92.7195 35.2308 92.7195 34.2698V33.9598C92.7195 33.0608 92.9107 32.3117 93.293 31.7123C93.6754 31.1027 94.1972 30.6428 94.8585 30.3328C95.5199 30.0228 96.2535 29.8678 97.0595 29.8678C97.8655 29.8678 98.594 30.0228 99.245 30.3328C99.9064 30.6428 100.428 31.1027 100.811 31.7123C101.193 32.3117 101.384 33.0608 101.384 33.9598V34.2698C101.384 35.1998 101.193 35.9852 100.811 36.6258C100.428 37.2562 99.9064 37.7315 99.245 38.0518C98.594 38.3618 97.8655 38.5168 97.0595 38.5168ZM97.0595 36.1453C97.3385 36.1453 97.5814 36.0782 97.788 35.9438C97.9947 35.7992 98.1497 35.5873 98.253 35.3083C98.3667 35.0293 98.4235 34.6832 98.4235 34.2698V33.9598C98.4235 33.5982 98.3667 33.2882 98.253 33.0298C98.1497 32.7715 97.9947 32.5752 97.788 32.4408C97.5814 32.3065 97.3385 32.2393 97.0595 32.2393C96.7599 32.2393 96.5067 32.3065 96.3 32.4408C96.1037 32.5752 95.9487 32.7715 95.835 33.0298C95.7317 33.2882 95.68 33.5982 95.68 33.9598V34.2698C95.68 34.6832 95.7317 35.0293 95.835 35.3083C95.9487 35.5873 96.1037 35.7992 96.3 35.9438C96.5067 36.0782 96.7599 36.1453 97.0595 36.1453ZM102.399 38.2998V30.0848H107.312C108.067 30.0848 108.666 30.183 109.11 30.3793C109.565 30.5653 109.89 30.8185 110.087 31.1388C110.293 31.4592 110.397 31.8208 110.397 32.2238C110.397 32.6372 110.283 33.0143 110.056 33.3553C109.828 33.686 109.493 33.9082 109.048 34.0218C109.555 34.1458 109.942 34.3835 110.211 34.7348C110.49 35.0862 110.629 35.4943 110.629 35.9593C110.629 36.6723 110.381 37.2407 109.885 37.6643C109.389 38.088 108.635 38.2998 107.622 38.2998H102.399ZM105.313 36.3003H106.754C107.064 36.3003 107.302 36.2435 107.467 36.1298C107.633 36.0162 107.715 35.8612 107.715 35.6648C107.715 35.4685 107.638 35.3135 107.483 35.1998C107.338 35.0862 107.1 35.0293 106.77 35.0293H105.313V36.3003ZM105.313 33.2933H106.63C106.971 33.2933 107.199 33.2365 107.312 33.1228C107.426 32.9988 107.483 32.8542 107.483 32.6888C107.483 32.5235 107.421 32.384 107.297 32.2703C107.183 32.1463 106.961 32.0843 106.63 32.0843H105.313V33.2933ZM111.617 38.2998V30.0848H114.531V33.0298H114.996L116.81 30.0848H119.925L117.43 33.8668L120.08 38.2998H116.732L114.996 35.1998H114.531V38.2998H111.617ZM120.805 38.2998V30.0848H123.688V34.2698L126.556 30.0848H129.036V38.2998H126.153V34.1148L123.285 38.2998H120.805Z" fill="#333333"/>
</svg>
