<svg width="103" height="20" viewBox="0 0 103 20" fill="none" xmlns="http://www.w3.org/2000/svg">
<path d="M9.58761 1.00112C9.90636 0.549728 10.5759 0.549728 10.8946 1.00112L13.5396 4.74691C13.6441 4.89483 13.7956 5.00294 13.9695 5.05356L18.4055 6.34523C18.9489 6.50348 19.1607 7.16067 18.8118 7.60642L16.0162 11.1781C15.9018 11.3242 15.8418 11.5056 15.8464 11.6912L15.9595 16.2036C15.9734 16.7612 15.4269 17.1616 14.8995 16.9801L10.5014 15.4669C10.3327 15.4089 10.1495 15.4089 9.98084 15.4669L5.58277 16.9801C5.05535 17.1616 4.50878 16.7612 4.52275 16.2036L4.63582 11.6912C4.64047 11.5056 4.58045 11.3242 4.46604 11.1781L1.67045 7.60642C1.32155 7.16067 1.53328 6.50349 2.07677 6.34523L6.51277 5.05356C6.68663 5.00294 6.83817 4.89483 6.94262 4.74691L9.58761 1.00112Z" fill="#F5A700"/>
<path d="M30.1454 1.00063C30.4641 0.549397 31.1335 0.549397 31.4522 1.00063L34.0981 4.74613C34.2025 4.89401 34.3541 5.00208 34.5279 5.05268L38.9649 6.34412C39.5085 6.50234 39.7202 7.15969 39.3712 7.60545L36.5753 11.1761C36.4608 11.3223 36.4007 11.5037 36.4054 11.6893L36.5185 16.2008C36.5325 16.7583 35.986 17.1587 35.4586 16.9773L31.059 15.4642C30.8904 15.4062 30.7072 15.4062 30.5386 15.4642L26.139 16.9773C25.6116 17.1587 25.0651 16.7583 25.0791 16.2008L25.1922 11.6893C25.1969 11.5037 25.1368 11.3223 25.0223 11.1761L22.2264 7.60545C21.8774 7.15969 22.0891 6.50234 22.6327 6.34412L27.0697 5.05268C27.2435 5.00208 27.3951 4.89401 27.4995 4.74613L30.1454 1.00063Z" fill="#F5A700"/>
<path d="M50.7054 1.00063C51.0242 0.549397 51.6935 0.549397 52.0123 1.00063L54.6581 4.74613C54.7626 4.89401 54.9141 5.00208 55.088 5.05268L59.525 6.34412C60.0686 6.50234 60.2803 7.15969 59.9313 7.60545L57.1353 11.1761C57.0209 11.3223 56.9608 11.5037 56.9655 11.6893L57.0785 16.2008C57.0925 16.7583 56.546 17.1587 56.0186 16.9773L51.619 15.4642C51.4504 15.4062 51.2673 15.4062 51.0987 15.4642L46.6991 16.9773C46.1717 17.1587 45.6252 16.7583 45.6392 16.2008L45.7523 11.6893C45.7569 11.5037 45.6969 11.3223 45.5824 11.1761L42.7865 7.60545C42.4374 7.15969 42.6492 6.50234 43.1928 6.34412L47.6297 5.05268C47.8036 5.00208 47.9551 4.89401 48.0596 4.74613L50.7054 1.00063Z" fill="#F5A700"/>
<path d="M71.2655 1.00063C71.5843 0.549397 72.2536 0.549397 72.5723 1.00063L75.2182 4.74613C75.3227 4.89401 75.4742 5.00208 75.648 5.05268L80.085 6.34412C80.6286 6.50234 80.8404 7.15969 80.4913 7.60545L77.6954 11.1761C77.5809 11.3223 77.5209 11.5037 77.5255 11.6893L77.6386 16.2008C77.6526 16.7583 77.1061 17.1587 76.5787 16.9773L72.1791 15.4642C72.0105 15.4062 71.8273 15.4062 71.6587 15.4642L67.2592 16.9773C66.7317 17.1587 66.1853 16.7583 66.1992 16.2008L66.3123 11.6893C66.317 11.5037 66.2569 11.3223 66.1424 11.1761L63.3465 7.60545C62.9975 7.15969 63.2092 6.50234 63.7528 6.34412L68.1898 5.05268C68.3636 5.00208 68.5152 4.89401 68.6196 4.74613L71.2655 1.00063Z" fill="#F5A700"/>
<path d="M91.8256 1.26222C92.1443 0.810993 92.8136 0.810993 93.1324 1.26222L95.7783 5.00773C95.8827 5.15561 96.0343 5.26368 96.2081 5.31428L100.645 6.60571C101.189 6.76394 101.4 7.42128 101.051 7.86705L98.2554 11.4377C98.141 11.5839 98.0809 11.7653 98.0856 11.9509L98.1987 16.4624C98.2126 17.0199 97.6661 17.4203 97.1387 17.2389L92.7391 15.7258C92.5705 15.6678 92.3874 15.6678 92.2188 15.7258L87.8192 17.2389C87.2918 17.4203 86.7453 17.0199 86.7593 16.4624L86.8724 11.9509C86.877 11.7653 86.817 11.5839 86.7025 11.4377L83.9066 7.86705C83.5575 7.42128 83.7693 6.76394 84.3129 6.60571L88.7499 5.31428C88.9237 5.26368 89.0752 5.15561 89.1797 5.00773L91.8256 1.26222Z" fill="#F5A700"/>
</svg>
