<svg width="22" height="22" viewBox="0 0 22 22" fill="none" xmlns="http://www.w3.org/2000/svg">
<path d="M21.8406 10.9682C21.8406 13.8339 20.7023 16.5821 18.676 18.6084C16.6497 20.6347 13.9014 21.7731 11.0358 21.7731C8.17018 21.7731 5.42192 20.6347 3.39562 18.6084C1.36932 16.5821 0.230957 13.8339 0.230957 10.9682C0.230957 8.10261 1.36932 5.35436 3.39562 3.32805C5.42192 1.30175 8.17018 0.163391 11.0358 0.163391C13.9014 0.163391 16.6497 1.30175 18.676 3.32805C20.7023 5.35436 21.8406 8.10261 21.8406 10.9682Z" fill="#FB3F1D"/>
<path d="M21.7478 10.9313C21.7478 13.7703 20.62 16.493 18.6125 18.5004C16.6051 20.5079 13.8824 21.6357 11.0434 21.6357C8.20447 21.6357 5.48179 20.5079 3.47434 18.5004C1.46688 16.493 0.339111 13.7703 0.339111 10.9313C0.339111 8.09236 1.46688 5.36967 3.47434 3.36222C5.48179 1.35477 8.20447 0.22699 11.0434 0.22699C13.8824 0.22699 16.6051 1.35477 18.6125 3.36222C20.62 5.36967 21.7478 8.09236 21.7478 10.9313Z" fill="#FB3F1D"/>
<path d="M14.7525 17.3469H12.5186V6.25132H11.5217C9.69417 6.25132 8.73414 7.17408 8.73414 8.54049C8.73414 10.091 9.39871 10.8113 10.7647 11.7345L11.8908 12.4915L8.64164 17.3469H6.22314L9.14006 13.0084C7.46023 11.8081 6.51861 10.6451 6.51861 8.66981C6.51861 6.19564 8.23571 4.51581 11.5033 4.51581H14.7525V17.3469Z" fill="white"/>
</svg>
