<svg width="141" height="34" viewBox="0 0 141 34" fill="none" xmlns="http://www.w3.org/2000/svg">
<path d="M45.7042 11.0544V2.57445H49.4642L51.0482 6.27045L52.6162 2.57445H56.2802V11.0544H53.4962V6.17445L51.9442 9.53445H50.0402L48.4882 6.17445V11.0544H45.7042Z" fill="#2B2B2B"/>
<path d="M60.186 11.2784C59.578 11.2784 59.0607 11.1611 58.634 10.9264C58.2074 10.6918 57.882 10.3664 57.658 9.95045C57.434 9.53445 57.322 9.07578 57.322 8.57445C57.322 7.73178 57.578 7.07578 58.09 6.60645C58.6127 6.13712 59.418 5.90245 60.506 5.90245H62.634V5.61445C62.634 5.21978 62.5434 4.94778 62.362 4.79845C62.1807 4.63845 61.9354 4.55845 61.626 4.55845C61.3274 4.55845 61.1034 4.60645 60.954 4.70245C60.8154 4.79845 60.7354 4.94245 60.714 5.13445H57.802C57.834 4.60112 57.994 4.12645 58.282 3.71045C58.5807 3.28378 59.0127 2.95312 59.578 2.71845C60.154 2.47312 60.8634 2.35045 61.706 2.35045C62.4847 2.35045 63.1674 2.46778 63.754 2.70245C64.3514 2.92645 64.8154 3.29445 65.146 3.80645C65.4767 4.30778 65.642 4.99045 65.642 5.85445V8.89445C65.642 9.34245 65.6527 9.73712 65.674 10.0784C65.6954 10.4091 65.7327 10.7344 65.786 11.0544H62.922C62.89 10.9051 62.8634 10.7611 62.842 10.6224C62.8207 10.4838 62.81 10.3024 62.81 10.0784C62.586 10.4091 62.2767 10.6918 61.882 10.9264C61.4874 11.1611 60.922 11.2784 60.186 11.2784ZM61.274 9.15045C61.5514 9.15045 61.7914 9.10245 61.994 9.00645C62.1967 8.89978 62.3514 8.75045 62.458 8.55845C62.5754 8.35578 62.634 8.12112 62.634 7.85445V7.59845H61.226C60.9487 7.59845 60.7354 7.66778 60.586 7.80645C60.4474 7.94512 60.378 8.12112 60.378 8.33445C60.378 8.59045 60.4474 8.79312 60.586 8.94245C60.7354 9.08112 60.9647 9.15045 61.274 9.15045Z" fill="#2B2B2B"/>
<path d="M70.9873 11.2784C70.1233 11.2784 69.3606 11.1078 68.6993 10.7664C68.038 10.4144 67.5206 9.91312 67.1473 9.26245C66.7846 8.61178 66.6033 7.82245 66.6033 6.89445V6.57445C66.6033 5.71045 66.79 4.96378 67.1633 4.33445C67.5366 3.70512 68.054 3.21978 68.7153 2.87845C69.3873 2.52645 70.1446 2.35045 70.9873 2.35045C71.958 2.35045 72.742 2.51045 73.3393 2.83045C73.9473 3.13978 74.4006 3.56112 74.6993 4.09445C75.0086 4.61712 75.19 5.20378 75.2433 5.85445H72.3153C72.262 5.49178 72.134 5.22512 71.9313 5.05445C71.7393 4.88378 71.4673 4.79845 71.1153 4.79845C70.8273 4.79845 70.5713 4.86778 70.3473 5.00645C70.134 5.13445 69.9633 5.33178 69.8353 5.59845C69.718 5.85445 69.6593 6.17978 69.6593 6.57445V6.89445C69.6593 7.33178 69.718 7.69445 69.8353 7.98245C69.9526 8.27045 70.118 8.48378 70.3313 8.62245C70.5446 8.75045 70.806 8.81445 71.1153 8.81445C71.4246 8.81445 71.686 8.73445 71.8993 8.57445C72.1126 8.40378 72.2513 8.13712 72.3153 7.77445H75.2433C75.19 8.49978 74.998 9.12378 74.6673 9.64645C74.3366 10.1691 73.8673 10.5744 73.2593 10.8624C72.662 11.1398 71.9046 11.2784 70.9873 11.2784Z" fill="#2B2B2B"/>
<path d="M78.2994 11.0544V4.99045H75.8834V2.57445H83.7234V4.99045H81.3074V11.0544H78.2994Z" fill="#2B2B2B"/>
<path d="M88.8195 11.2784C87.9342 11.2784 87.1449 11.1184 86.4515 10.7984C85.7689 10.4784 85.2302 9.99845 84.8355 9.35845C84.4515 8.71845 84.2595 7.91312 84.2595 6.94245V6.62245C84.2595 5.67312 84.4462 4.88378 84.8195 4.25445C85.1929 3.62512 85.7102 3.15045 86.3715 2.83045C87.0435 2.51045 87.8062 2.35045 88.6595 2.35045C90.1315 2.35045 91.2302 2.71845 91.9555 3.45445C92.6809 4.17978 93.0435 5.24645 93.0435 6.65445V7.58245H87.2995C87.3209 7.91312 87.3955 8.19045 87.5235 8.41445C87.6515 8.62778 87.8222 8.78778 88.0355 8.89445C88.2595 8.99045 88.5209 9.03845 88.8195 9.03845C89.1929 9.03845 89.4809 8.97978 89.6835 8.86245C89.8969 8.73445 90.0409 8.57445 90.1156 8.38245H92.9315C92.7609 9.36378 92.3235 10.0944 91.6195 10.5744C90.9262 11.0438 89.9929 11.2784 88.8195 11.2784ZM88.7395 4.59045C88.4622 4.59045 88.2169 4.63845 88.0035 4.73445C87.8009 4.83045 87.6409 4.96912 87.5235 5.15045C87.4062 5.33178 87.3369 5.56112 87.3155 5.83845H90.0995C90.0889 5.55045 90.0249 5.31578 89.9076 5.13445C89.7902 4.94245 89.6302 4.80378 89.4275 4.71845C89.2355 4.63312 89.0062 4.59045 88.7395 4.59045Z" fill="#2B2B2B"/>
<path d="M94.0792 14.2544V2.57445H96.8632V3.63045C97.0658 3.26778 97.3698 2.96378 97.7752 2.71845C98.1912 2.47312 98.7565 2.35045 99.4712 2.35045C100.57 2.35045 101.423 2.70778 102.031 3.42245C102.65 4.13712 102.959 5.20378 102.959 6.62245V6.94245C102.959 7.91312 102.81 8.72378 102.511 9.37445C102.213 10.0144 101.797 10.4944 101.263 10.8144C100.741 11.1238 100.143 11.2784 99.4712 11.2784C98.9805 11.2784 98.5272 11.1771 98.1112 10.9744C97.6952 10.7718 97.3538 10.4731 97.0872 10.0784V14.2544H94.0792ZM98.5432 8.83045C98.9058 8.83045 99.2205 8.68112 99.4872 8.38245C99.7538 8.07312 99.8872 7.59312 99.8872 6.94245V6.62245C99.8872 5.98245 99.7592 5.51845 99.5032 5.23045C99.2472 4.94245 98.9272 4.79845 98.5432 4.79845C98.2765 4.79845 98.0312 4.85712 97.8072 4.97445C97.5832 5.09178 97.4072 5.27312 97.2792 5.51845C97.1512 5.76378 97.0872 6.07312 97.0872 6.44645V7.10245C97.0872 7.48645 97.1512 7.81178 97.2792 8.07845C97.4178 8.33445 97.5992 8.52645 97.8232 8.65445C98.0472 8.77178 98.2872 8.83045 98.5432 8.83045Z" fill="#2B2B2B"/>
<path d="M108.081 11.2784C107.217 11.2784 106.454 11.1078 105.793 10.7664C105.132 10.4144 104.614 9.91312 104.241 9.26245C103.878 8.61178 103.697 7.82245 103.697 6.89445V6.57445C103.697 5.71045 103.884 4.96378 104.257 4.33445C104.63 3.70512 105.148 3.21978 105.809 2.87845C106.481 2.52645 107.238 2.35045 108.081 2.35045C109.052 2.35045 109.836 2.51045 110.433 2.83045C111.041 3.13978 111.494 3.56112 111.793 4.09445C112.102 4.61712 112.284 5.20378 112.337 5.85445H109.409C109.356 5.49178 109.228 5.22512 109.025 5.05445C108.833 4.88378 108.561 4.79845 108.209 4.79845C107.921 4.79845 107.665 4.86778 107.441 5.00645C107.228 5.13445 107.057 5.33178 106.929 5.59845C106.812 5.85445 106.753 6.17978 106.753 6.57445V6.89445C106.753 7.33178 106.812 7.69445 106.929 7.98245C107.046 8.27045 107.212 8.48378 107.425 8.62245C107.638 8.75045 107.9 8.81445 108.209 8.81445C108.518 8.81445 108.78 8.73445 108.993 8.57445C109.206 8.40378 109.345 8.13712 109.409 7.77445H112.337C112.284 8.49978 112.092 9.12378 111.761 9.64645C111.43 10.1691 110.961 10.5744 110.353 10.8624C109.756 11.1398 108.998 11.2784 108.081 11.2784Z" fill="#2B2B2B"/>
<path d="M113.329 11.0544V2.57445H116.337V5.61445H116.817L118.689 2.57445H121.905L119.329 6.47845L122.065 11.0544H118.609L116.817 7.85445H116.337V11.0544H113.329Z" fill="#2B2B2B"/>
<path d="M125.217 11.2784C124.609 11.2784 124.092 11.1611 123.665 10.9264C123.239 10.6918 122.913 10.3664 122.689 9.95045C122.465 9.53445 122.353 9.07578 122.353 8.57445C122.353 7.73178 122.609 7.07578 123.121 6.60645C123.644 6.13712 124.449 5.90245 125.537 5.90245H127.665V5.61445C127.665 5.21978 127.575 4.94778 127.393 4.79845C127.212 4.63845 126.967 4.55845 126.657 4.55845C126.359 4.55845 126.135 4.60645 125.985 4.70245C125.847 4.79845 125.767 4.94245 125.745 5.13445H122.833C122.865 4.60112 123.025 4.12645 123.313 3.71045C123.612 3.28378 124.044 2.95312 124.609 2.71845C125.185 2.47312 125.895 2.35045 126.737 2.35045C127.516 2.35045 128.199 2.46778 128.785 2.70245C129.383 2.92645 129.847 3.29445 130.177 3.80645C130.508 4.30778 130.673 4.99045 130.673 5.85445V8.89445C130.673 9.34245 130.684 9.73712 130.705 10.0784C130.727 10.4091 130.764 10.7344 130.817 11.0544H127.953C127.921 10.9051 127.895 10.7611 127.873 10.6224C127.852 10.4838 127.841 10.3024 127.841 10.0784C127.617 10.4091 127.308 10.6918 126.913 10.9264C126.519 11.1611 125.953 11.2784 125.217 11.2784ZM126.305 9.15045C126.583 9.15045 126.823 9.10245 127.025 9.00645C127.228 8.89978 127.383 8.75045 127.489 8.55845C127.607 8.35578 127.665 8.12112 127.665 7.85445V7.59845H126.257C125.98 7.59845 125.767 7.66778 125.617 7.80645C125.479 7.94512 125.409 8.12112 125.409 8.33445C125.409 8.59045 125.479 8.79312 125.617 8.94245C125.767 9.08112 125.996 9.15045 126.305 9.15045Z" fill="#2B2B2B"/>
<path d="M131.555 11.0544L133.459 7.99845C132.904 7.76378 132.499 7.43845 132.243 7.02245C131.997 6.60645 131.875 6.12645 131.875 5.58245C131.875 4.99578 132.003 4.47845 132.259 4.03045C132.515 3.58245 132.909 3.23045 133.443 2.97445C133.987 2.70778 134.685 2.57445 135.539 2.57445H140.035V11.0544H137.027V8.39845H136.259L134.787 11.0544H131.555ZM134.851 5.58245C134.851 5.83845 134.941 6.02512 135.123 6.14245C135.315 6.24912 135.533 6.30245 135.779 6.30245H137.027V4.83045H135.779C135.533 4.83045 135.315 4.88912 135.123 5.00645C134.941 5.12378 134.851 5.31578 134.851 5.58245Z" fill="#2B2B2B"/>
<path d="M47.4802 33.4784C47.3202 33.4784 47.1602 33.4624 47.0002 33.4304V30.9824C47.1602 31.0144 47.3202 31.0304 47.4802 31.0304C47.6935 31.0304 47.8588 30.9984 47.9762 30.9344C48.1042 30.8811 48.2162 30.7798 48.3122 30.6304C48.4082 30.4811 48.5042 30.2891 48.6002 30.0544L45.1282 21.5744H48.3762L50.1842 26.6464L51.8642 21.5744H54.7282L51.5922 30.0544C51.2935 30.8544 50.9735 31.5051 50.6322 32.0064C50.3015 32.5184 49.8908 32.8918 49.4002 33.1264C48.9095 33.3611 48.2695 33.4784 47.4802 33.4784Z" fill="#2B2B2B"/>
<path d="M55.501 30.0544V21.5744H63.837V30.0544H60.829V23.9904H58.509V30.0544H55.501Z" fill="#2B2B2B"/>
<path d="M67.7485 30.2785C67.1405 30.2785 66.6232 30.1611 66.1965 29.9264C65.7699 29.6918 65.4445 29.3664 65.2205 28.9504C64.9965 28.5344 64.8845 28.0758 64.8845 27.5744C64.8845 26.7318 65.1405 26.0758 65.6525 25.6064C66.1752 25.1371 66.9805 24.9024 68.0685 24.9024H70.1965V24.6144C70.1965 24.2198 70.1059 23.9478 69.9245 23.7984C69.7432 23.6384 69.4979 23.5584 69.1885 23.5584C68.8899 23.5584 68.6659 23.6064 68.5165 23.7024C68.3779 23.7984 68.2979 23.9424 68.2765 24.1344H65.3645C65.3965 23.6011 65.5565 23.1264 65.8445 22.7104C66.1432 22.2838 66.5752 21.9531 67.1405 21.7184C67.7165 21.4731 68.4259 21.3504 69.2685 21.3504C70.0472 21.3504 70.7299 21.4678 71.3165 21.7024C71.9139 21.9264 72.3779 22.2944 72.7085 22.8064C73.0392 23.3078 73.2045 23.9904 73.2045 24.8544V27.8944C73.2045 28.3424 73.2152 28.7371 73.2365 29.0784C73.2579 29.4091 73.2952 29.7344 73.3485 30.0544H70.4845C70.4525 29.9051 70.4259 29.7611 70.4045 29.6224C70.3832 29.4838 70.3725 29.3024 70.3725 29.0784C70.1485 29.4091 69.8392 29.6918 69.4445 29.9264C69.0499 30.1611 68.4845 30.2785 67.7485 30.2785ZM68.8365 28.1504C69.1139 28.1504 69.3539 28.1024 69.5565 28.0064C69.7592 27.8998 69.9139 27.7504 70.0205 27.5584C70.1379 27.3558 70.1965 27.1211 70.1965 26.8544V26.5984H68.7885C68.5112 26.5984 68.2979 26.6678 68.1485 26.8064C68.0099 26.9451 67.9405 27.1211 67.9405 27.3344C67.9405 27.5904 68.0099 27.7931 68.1485 27.9424C68.2979 28.0811 68.5272 28.1504 68.8365 28.1504Z" fill="#2B2B2B"/>
<path d="M74.4698 30.0544V21.5744H77.4778V24.6144H77.9578L79.8298 21.5744H83.0458L80.4698 25.4784L83.2058 30.0544H79.7498L77.9578 26.8544H77.4778V30.0544H74.4698Z" fill="#2B2B2B"/>
<path d="M87.7395 30.2785C86.9075 30.2785 86.1502 30.1238 85.4675 29.8144C84.7849 29.4944 84.2462 29.0091 83.8515 28.3584C83.4569 27.7078 83.2595 26.8864 83.2595 25.8944V25.5744C83.2595 24.6464 83.4569 23.8731 83.8515 23.2544C84.2462 22.6251 84.7849 22.1504 85.4675 21.8304C86.1502 21.5104 86.9075 21.3504 87.7395 21.3504C88.5715 21.3504 89.3235 21.5104 89.9955 21.8304C90.6782 22.1504 91.2169 22.6251 91.6115 23.2544C92.0062 23.8731 92.2035 24.6464 92.2035 25.5744V25.8944C92.2035 26.8544 92.0062 27.6651 91.6115 28.3264C91.2169 28.9771 90.6782 29.4678 89.9955 29.7984C89.3235 30.1184 88.5715 30.2785 87.7395 30.2785ZM87.7395 27.8304C88.0275 27.8304 88.2782 27.7611 88.4916 27.6224C88.7049 27.4731 88.8649 27.2544 88.9715 26.9664C89.0889 26.6784 89.1475 26.3211 89.1475 25.8944V25.5744C89.1475 25.2011 89.0889 24.8811 88.9715 24.6144C88.8649 24.3478 88.7049 24.1451 88.4916 24.0064C88.2782 23.8678 88.0275 23.7984 87.7395 23.7984C87.4302 23.7984 87.1689 23.8678 86.9555 24.0064C86.7529 24.1451 86.5929 24.3478 86.4755 24.6144C86.3689 24.8811 86.3155 25.2011 86.3155 25.5744V25.8944C86.3155 26.3211 86.3689 26.6784 86.4755 26.9664C86.5929 27.2544 86.7529 27.4731 86.9555 27.6224C87.1689 27.7611 87.4302 27.8304 87.7395 27.8304Z" fill="#2B2B2B"/>
<path d="M93.251 30.0544V21.5744H98.323C99.1017 21.5744 99.7204 21.6758 100.179 21.8784C100.648 22.0704 100.984 22.3318 101.187 22.6624C101.4 22.9931 101.507 23.3664 101.507 23.7824C101.507 24.2091 101.39 24.5984 101.155 24.9504C100.92 25.2918 100.574 25.5211 100.115 25.6384C100.638 25.7664 101.038 26.0118 101.315 26.3744C101.603 26.7371 101.747 27.1584 101.747 27.6384C101.747 28.3744 101.491 28.9611 100.979 29.3984C100.467 29.8358 99.6884 30.0544 98.643 30.0544H93.251ZM96.259 27.9904H97.747C98.067 27.9904 98.3124 27.9318 98.483 27.8144C98.6537 27.6971 98.739 27.5371 98.739 27.3344C98.739 27.1318 98.6591 26.9718 98.4991 26.8544C98.3497 26.7371 98.1044 26.6784 97.7631 26.6784H96.259V27.9904ZM96.259 24.8864H97.619C97.971 24.8864 98.2057 24.8278 98.323 24.7104C98.4404 24.5824 98.4991 24.4331 98.4991 24.2624C98.4991 24.0918 98.435 23.9478 98.307 23.8304C98.1897 23.7024 97.9604 23.6384 97.619 23.6384H96.259V24.8864Z" fill="#2B2B2B"/>
<path d="M102.767 30.0544V21.5744H105.775V24.6144H106.255L108.127 21.5744H111.343L108.767 25.4784L111.503 30.0544H108.047L106.255 26.8544H105.775V30.0544H102.767Z" fill="#2B2B2B"/>
<path d="M112.251 30.0544V21.5744H115.227V25.8944L118.187 21.5744H120.747V30.0544H117.771V25.7344L114.811 30.0544H112.251Z" fill="#2B2B2B"/>
<path d="M29.9435 4.47594H33.9435V0.475945L29.9435 0.475942L29.9435 4.47594ZM4.94348 29.4759H0.943481L4.94348 33.4759V29.4759ZM4.94348 4.47592L4.94348 0.475922L0.943481 4.47592H4.94348ZM29.9435 29.4759V33.4759L33.9435 29.4759H29.9435ZM4.94348 29.4759H8.94348V4.47592H4.94348H0.943481V29.4759H4.94348ZM4.94348 4.47592L4.94348 8.47592L29.9435 8.47594L29.9435 4.47594L29.9435 0.475942L4.94348 0.475922L4.94348 4.47592ZM29.9435 29.4759V25.4759H4.94348V29.4759V33.4759H29.9435V29.4759ZM29.9435 4.47594H25.9435V17.5157H29.9435H33.9435V4.47594H29.9435ZM29.9435 17.5157H25.9435V29.4759H29.9435H33.9435V17.5157H29.9435Z" fill="#2C6DD1"/>
<rect x="131.114" y="21.543" width="8.9176" height="8.47939" fill="#2B2B2B"/>
</svg>
